<?xml version="1.0" encoding="utf-8"?>
<!-- Generator: Adobe Illustrator 17.0.0, SVG Export Plug-In . SVG Version: 6.00 Build 0)  -->
<!DOCTYPE svg PUBLIC "-//W3C//DTD SVG 1.1//EN" "http://www.w3.org/Graphics/SVG/1.1/DTD/svg11.dtd">
<svg version="1.1" id="Ebene_1" xmlns="http://www.w3.org/2000/svg" xmlns:xlink="http://www.w3.org/1999/xlink" x="0px" y="0px"
	width="100%" height="100%" viewBox="0 0 56 56" enable-background="new 0 0 56 56" xml:space="preserve">
	<line fill="none" stroke="#000000" stroke-width="0.2" stroke-miterlimit="10" x1="30.94" y1="35.565" x2="30.514" y2="36.696"/>
	<line fill="none" stroke="#000000" stroke-width="0.2" stroke-miterlimit="10" x1="33.167" y1="36.406" x2="32.74" y2="37.536"/>
	<line fill="none" stroke="#000000" stroke-width="0.2" stroke-miterlimit="10" x1="35.393" y1="37.246" x2="34.966" y2="38.376"/>
	<line fill="none" stroke="#000000" stroke-width="0.2" stroke-miterlimit="10" x1="34.28" y1="36.826" x2="33.853" y2="37.956"/>
	<line fill="none" stroke="#000000" stroke-width="0.2" stroke-miterlimit="10" x1="32.053" y1="35.985" x2="31.627" y2="37.116"/>
	<polygon stroke="#000000" stroke-miterlimit="10" points="28.667,37.016 13.26,44.933 12.777,42.317 3.054,23.275 
		1.173,21.413 16.58,13.496 16.795,16.214 26.803,35.727 "/>
	<polygon stroke="#000000" stroke-miterlimit="10" points="27.462,37.016 42.869,44.933 43.352,42.317 53.076,23.275 
		54.956,21.413 39.549,13.496 39.334,16.214 29.326,35.727 "/>
	<g>
		<line fill="none" stroke="#000000" stroke-width="0.2" stroke-miterlimit="10" x1="12.247" y1="16.534" x2="12.799" y2="17.609"/>
		<line fill="none" stroke="#000000" stroke-width="0.2" stroke-miterlimit="10" x1="14.363" y1="15.446" x2="14.916" y2="16.521"/>
		<line fill="none" stroke="#000000" stroke-width="0.2" stroke-miterlimit="10" x1="5.897" y1="19.797" x2="6.449" y2="20.872"/>
		<line fill="none" stroke="#000000" stroke-width="0.2" stroke-miterlimit="10" x1="8.014" y1="18.709" x2="8.566" y2="19.784"/>
		<line fill="none" stroke="#000000" stroke-width="0.2" stroke-miterlimit="10" x1="3.78" y1="20.885" x2="4.333" y2="21.959"/>
		<line fill="none" stroke="#000000" stroke-width="0.2" stroke-miterlimit="10" x1="10.13" y1="17.622" x2="10.682" y2="18.696"/>
	</g>
	<g>
		<line fill="none" stroke="#000000" stroke-width="0.2" stroke-miterlimit="10" x1="43.548" y1="16.541" x2="42.995" y2="17.615"/>
		<line fill="none" stroke="#000000" stroke-width="0.2" stroke-miterlimit="10" x1="41.431" y1="15.453" x2="40.879" y2="16.528"/>
		<line fill="none" stroke="#000000" stroke-width="0.2" stroke-miterlimit="10" x1="49.897" y1="19.804" x2="49.345" y2="20.878"/>
		<line fill="none" stroke="#000000" stroke-width="0.2" stroke-miterlimit="10" x1="47.781" y1="18.716" x2="47.229" y2="19.791"/>
		<line fill="none" stroke="#000000" stroke-width="0.2" stroke-miterlimit="10" x1="52.014" y1="20.891" x2="51.462" y2="21.966"/>
		<line fill="none" stroke="#000000" stroke-width="0.2" stroke-miterlimit="10" x1="45.664" y1="17.628" x2="45.112" y2="18.703"/>
	</g>
	<line fill="none" stroke="#000000" stroke-width="0.2" stroke-miterlimit="10" x1="22.032" y1="38.179" x2="22.584" y2="39.254"/>
	<line fill="none" stroke="#000000" stroke-width="0.2" stroke-miterlimit="10" x1="23.09" y1="37.635" x2="23.643" y2="38.71"/>
	<line fill="none" stroke="#000000" stroke-width="0.2" stroke-miterlimit="10" x1="25.207" y1="36.547" x2="25.759" y2="37.622"/>
	<line fill="none" stroke="#000000" stroke-width="0.2" stroke-miterlimit="10" x1="19.915" y1="39.267" x2="20.468" y2="40.341"/>
	<line fill="none" stroke="#000000" stroke-width="0.2" stroke-miterlimit="10" x1="16.741" y1="40.898" x2="17.293" y2="41.973"/>
	<line fill="none" stroke="#000000" stroke-width="0.2" stroke-miterlimit="10" x1="24.149" y1="37.091" x2="24.701" y2="38.166"/>
	<line fill="none" stroke="#000000" stroke-width="0.2" stroke-miterlimit="10" x1="14.624" y1="41.986" x2="15.176" y2="43.061"/>
	<line fill="none" stroke="#000000" stroke-width="0.2" stroke-miterlimit="10" x1="20.974" y1="38.723" x2="21.526" y2="39.797"/>
	<line fill="none" stroke="#000000" stroke-width="0.2" stroke-miterlimit="10" x1="26.265" y1="36.004" x2="26.818" y2="37.078"/>
	<polygon stroke="#000000" stroke-miterlimit="10" points="36.747,39.94 19.425,39.94 20.191,37.392 20.246,16.011 
		19.425,13.496 36.747,13.496 35.696,16.011 35.678,37.942 "/>
	<line fill="none" stroke="#000000" stroke-width="0.2" stroke-miterlimit="10" x1="31.504" y1="14.217" x2="31.504" y2="15.426"/>
	<line fill="none" stroke="#000000" stroke-width="0.2" stroke-miterlimit="10" x1="33.884" y1="14.217" x2="33.884" y2="15.426"/>
	<line fill="none" stroke="#000000" stroke-width="0.2" stroke-miterlimit="10" x1="24.365" y1="14.217" x2="24.365" y2="15.426"/>
	<line fill="none" stroke="#000000" stroke-width="0.2" stroke-miterlimit="10" x1="26.744" y1="14.217" x2="26.744" y2="15.426"/>
	<line fill="none" stroke="#000000" stroke-width="0.2" stroke-miterlimit="10" x1="21.985" y1="14.217" x2="21.985" y2="15.426"/>
	<line fill="none" stroke="#000000" stroke-width="0.2" stroke-miterlimit="10" x1="29.124" y1="14.217" x2="29.124" y2="15.426"/>
	<line fill="none" stroke="#000000" stroke-width="0.2" stroke-miterlimit="10" x1="31.504" y1="37.942" x2="31.504" y2="39.15"/>
	<line fill="none" stroke="#000000" stroke-width="0.2" stroke-miterlimit="10" x1="33.884" y1="37.942" x2="33.884" y2="39.15"/>
	<line fill="none" stroke="#000000" stroke-width="0.2" stroke-miterlimit="10" x1="24.365" y1="37.942" x2="24.365" y2="39.15"/>
	<line fill="none" stroke="#000000" stroke-width="0.2" stroke-miterlimit="10" x1="26.744" y1="37.942" x2="26.744" y2="39.15"/>
	<line fill="none" stroke="#000000" stroke-width="0.2" stroke-miterlimit="10" x1="21.985" y1="37.942" x2="21.985" y2="39.15"/>
	<line fill="none" stroke="#000000" stroke-width="0.2" stroke-miterlimit="10" x1="29.124" y1="37.942" x2="29.124" y2="39.15"/>
	<line fill="none" stroke="#000000" stroke-width="0.2" stroke-miterlimit="10" x1="41.072" y1="41.436" x2="40.52" y2="42.51"/>
	<line fill="none" stroke="#000000" stroke-width="0.2" stroke-miterlimit="10" x1="38.955" y1="40.348" x2="38.403" y2="41.422"/>
	<line fill="none" stroke="#000000" stroke-width="0.2" stroke-miterlimit="10" x1="43.189" y1="42.523" x2="42.636" y2="43.598"/>
	<line fill="none" stroke="#000000" stroke-width="0.2" stroke-miterlimit="10" x1="36.839" y1="39.26" x2="36.287" y2="40.335"/>
</svg>
