<?xml version="1.0" encoding="utf-8"?>
<!-- Generator: Adobe Illustrator 17.0.0, SVG Export Plug-In . SVG Version: 6.00 Build 0)  -->
<!DOCTYPE svg PUBLIC "-//W3C//DTD SVG 1.1//EN" "http://www.w3.org/Graphics/SVG/1.1/DTD/svg11.dtd">
<svg version="1.1" id="Ebene_1" xmlns="http://www.w3.org/2000/svg" xmlns:xlink="http://www.w3.org/1999/xlink" x="0px" y="0px"
	 width="56px" height="56px" viewBox="0 0 56 56" enable-background="new 0 0 56 56" xml:space="preserve">
<path fill="#FFFFFF" d="M32.285,9.268c0.695,0,1.494,0.644,1.652,0.732c3.522,1.956,11.875,6,11.875,6l0.625,0.375
	c0,0,0.399,0.205,0.5,0.313c0.082,0.086,0.2,0.302,0.229,0.417c0.021,0.081,0.083,0.281,0.083,0.365s-0.059,0.222-0.083,0.302
	c-0.033,0.108-0.181,0.286-0.25,0.375c-0.086,0.111-0.464,0.385-0.464,0.385L45,19.521l-17,11l-0.667,0.417l-0.792,0.417
	c0,0-0.242,0.092-0.649,0.252c-0.121,0.048-0.934-0.106-0.934-0.106l-0.625-0.229L9.917,23.729L9.5,23.354l-0.25-0.375v-0.5
	l0.292-0.542l0.583-0.5l1-0.625l10.5-5.688C21.625,15.125,31.688,9.268,32.285,9.268z"/>
<path fill="#FFFFFE" d="M35.824,26.97l9.989,3.801l0.375,0.375l0.25,0.292v0.458l-0.292,0.333l-0.667,0.333l-18.387,8.66
	l-0.82,0.386c0,0-0.632,0.212-0.794,0.246c-0.188,0.04-0.569,0.103-0.75,0.104c-0.191,0.001-0.758-0.112-0.938-0.167
	c-0.592-0.18-1.099-0.292-1.099-0.292L9.104,36.188l-0.375-0.292l-0.167-0.333v-0.417l0.542-0.688l1-0.438l9.036-4.089l4.569,2.422
	c0,0,0.558,0.267,0.768,0.342c0.2,0.071,0.832,0.241,1.044,0.241c0.159,0,0.578,0.028,0.729-0.021
	c0.12-0.039,0.618-0.228,0.734-0.276c0.221-0.091,0.813-0.453,0.813-0.453L35.824,26.97z"/>
<path fill="none" stroke="#FFFFFF" stroke-width="1.4" stroke-linecap="round" stroke-miterlimit="10" d="M9.25,38.708
	c0,0,12.917,5.792,15.458,5.792c3.167,0,21.5-9.625,21.5-9.625"/>
<path fill="none" stroke="#FFFFFF" stroke-width="1.4" stroke-linecap="round" stroke-miterlimit="10" d="M9.167,41.833
	c0,0,13.125,5.687,15.458,5.792C28,47.776,46.125,38,46.125,38"/>
<path fill="none" stroke="#FFFFFF" stroke-width="1.4" stroke-linecap="round" stroke-miterlimit="10" d="M9.167,44.792
	c0,0,13.167,5.792,15.458,5.792c3.375,0,21.5-9.625,21.5-9.625"/>
<path fill="none" stroke="#FFFFFF" stroke-width="1.4" stroke-linecap="round" stroke-miterlimit="10" d="M9.521,47.824
	c0,0,12.75,5.679,15.458,5.792c3.102,0.129,21.229-9.482,21.229-9.482"/>
<g>
</g>
<g>
</g>
<g>
</g>
<g>
</g>
<g>
</g>
<g>
</g>
</svg>
